<mxfile host="Electron" agent="Mozilla/5.0 (Windows NT 10.0; Win64; x64) AppleWebKit/537.36 (KHTML, like Gecko) draw.io/27.0.9 Chrome/134.0.6998.205 Electron/35.4.0 Safari/537.36" version="27.0.9">
  <diagram name="Pagina-1" id="T3UtmQdfyHqYUTUdKtI4">
    <mxGraphModel dx="768" dy="906" grid="1" gridSize="10" guides="1" tooltips="1" connect="1" arrows="1" fold="1" page="1" pageScale="1" pageWidth="827" pageHeight="1169" background="none" math="0" shadow="1">
      <root>
        <mxCell id="0" />
        <mxCell id="1" parent="0" />
        <mxCell id="0-FfSzVfnS306d9q8jJu-1" value="&lt;b&gt;Corso&lt;/b&gt;" style="swimlane;fontStyle=0;childLayout=stackLayout;horizontal=1;startSize=26;fillColor=none;horizontalStack=0;resizeParent=1;resizeParentMax=0;resizeLast=0;collapsible=1;marginBottom=0;whiteSpace=wrap;html=1;labelBackgroundColor=none;rounded=0;shadow=1;" parent="1" vertex="1">
          <mxGeometry x="303" y="80" width="190" height="130" as="geometry" />
        </mxCell>
        <mxCell id="0-FfSzVfnS306d9q8jJu-5" value="+ dataInizio: Date" style="text;strokeColor=none;fillColor=none;align=left;verticalAlign=top;spacingLeft=4;spacingRight=4;overflow=hidden;rotatable=0;points=[[0,0.5],[1,0.5]];portConstraint=eastwest;whiteSpace=wrap;html=1;labelBackgroundColor=none;rounded=0;shadow=1;" parent="0-FfSzVfnS306d9q8jJu-1" vertex="1">
          <mxGeometry y="26" width="190" height="26" as="geometry" />
        </mxCell>
        <mxCell id="0-FfSzVfnS306d9q8jJu-6" value="+ numeroSessioni: Integer" style="text;strokeColor=none;fillColor=none;align=left;verticalAlign=top;spacingLeft=4;spacingRight=4;overflow=hidden;rotatable=0;points=[[0,0.5],[1,0.5]];portConstraint=eastwest;whiteSpace=wrap;html=1;labelBackgroundColor=none;rounded=0;shadow=1;" parent="0-FfSzVfnS306d9q8jJu-1" vertex="1">
          <mxGeometry y="52" width="190" height="26" as="geometry" />
        </mxCell>
        <mxCell id="0-FfSzVfnS306d9q8jJu-2" value="+ categoria: Categoria" style="text;strokeColor=none;fillColor=none;align=left;verticalAlign=top;spacingLeft=4;spacingRight=4;overflow=hidden;rotatable=0;points=[[0,0.5],[1,0.5]];portConstraint=eastwest;whiteSpace=wrap;html=1;labelBackgroundColor=none;rounded=0;shadow=1;" parent="0-FfSzVfnS306d9q8jJu-1" vertex="1">
          <mxGeometry y="78" width="190" height="26" as="geometry" />
        </mxCell>
        <mxCell id="0-FfSzVfnS306d9q8jJu-8" value="+ frequenza: FrequenzaSessioni" style="text;strokeColor=none;fillColor=none;align=left;verticalAlign=top;spacingLeft=4;spacingRight=4;overflow=hidden;rotatable=0;points=[[0,0.5],[1,0.5]];portConstraint=eastwest;whiteSpace=wrap;html=1;labelBackgroundColor=none;rounded=0;shadow=1;" parent="0-FfSzVfnS306d9q8jJu-1" vertex="1">
          <mxGeometry y="104" width="190" height="26" as="geometry" />
        </mxCell>
        <mxCell id="0-FfSzVfnS306d9q8jJu-9" value="&lt;b&gt;Chef&lt;/b&gt;" style="swimlane;fontStyle=0;childLayout=stackLayout;horizontal=1;startSize=26;fillColor=none;horizontalStack=0;resizeParent=1;resizeParentMax=0;resizeLast=0;collapsible=1;marginBottom=0;whiteSpace=wrap;html=1;labelBackgroundColor=none;rounded=0;shadow=1;" parent="1" vertex="1">
          <mxGeometry x="20" y="80" width="140" height="129" as="geometry" />
        </mxCell>
        <mxCell id="0-FfSzVfnS306d9q8jJu-10" value="+ nome: String&lt;div&gt;&lt;br&gt;&lt;/div&gt;&lt;div&gt;&lt;br&gt;&lt;/div&gt;" style="text;strokeColor=none;fillColor=none;align=left;verticalAlign=top;spacingLeft=4;spacingRight=4;overflow=hidden;rotatable=0;points=[[0,0.5],[1,0.5]];portConstraint=eastwest;whiteSpace=wrap;html=1;labelBackgroundColor=none;rounded=0;shadow=1;" parent="0-FfSzVfnS306d9q8jJu-9" vertex="1">
          <mxGeometry y="26" width="140" height="26" as="geometry" />
        </mxCell>
        <mxCell id="0-FfSzVfnS306d9q8jJu-11" value="+ cognome: String" style="text;strokeColor=none;fillColor=none;align=left;verticalAlign=top;spacingLeft=4;spacingRight=4;overflow=hidden;rotatable=0;points=[[0,0.5],[1,0.5]];portConstraint=eastwest;whiteSpace=wrap;html=1;labelBackgroundColor=none;rounded=0;shadow=1;" parent="0-FfSzVfnS306d9q8jJu-9" vertex="1">
          <mxGeometry y="52" width="140" height="25" as="geometry" />
        </mxCell>
        <mxCell id="0-FfSzVfnS306d9q8jJu-12" value="+ username: String" style="text;strokeColor=none;fillColor=none;align=left;verticalAlign=top;spacingLeft=4;spacingRight=4;overflow=hidden;rotatable=0;points=[[0,0.5],[1,0.5]];portConstraint=eastwest;whiteSpace=wrap;html=1;labelBackgroundColor=none;rounded=0;shadow=1;" parent="0-FfSzVfnS306d9q8jJu-9" vertex="1">
          <mxGeometry y="77" width="140" height="26" as="geometry" />
        </mxCell>
        <mxCell id="0-FfSzVfnS306d9q8jJu-13" value="+ password: String" style="text;strokeColor=none;fillColor=none;align=left;verticalAlign=top;spacingLeft=4;spacingRight=4;overflow=hidden;rotatable=0;points=[[0,0.5],[1,0.5]];portConstraint=eastwest;whiteSpace=wrap;html=1;labelBackgroundColor=none;rounded=0;shadow=1;" parent="0-FfSzVfnS306d9q8jJu-9" vertex="1">
          <mxGeometry y="103" width="140" height="26" as="geometry" />
        </mxCell>
        <mxCell id="0-FfSzVfnS306d9q8jJu-18" value="Gestisce" style="text;html=1;align=center;verticalAlign=middle;resizable=0;points=[];autosize=1;strokeColor=none;fillColor=none;labelBackgroundColor=none;rounded=0;shadow=1;" parent="1" vertex="1">
          <mxGeometry x="240" y="113" width="70" height="30" as="geometry" />
        </mxCell>
        <mxCell id="0-FfSzVfnS306d9q8jJu-19" value="0..*" style="text;html=1;align=center;verticalAlign=middle;resizable=0;points=[];autosize=1;strokeColor=none;fillColor=none;labelBackgroundColor=none;rounded=0;shadow=1;" parent="1" vertex="1">
          <mxGeometry x="263" y="143" width="40" height="30" as="geometry" />
        </mxCell>
        <mxCell id="0-FfSzVfnS306d9q8jJu-20" value="Gestito da" style="text;html=1;align=center;verticalAlign=middle;resizable=0;points=[];autosize=1;strokeColor=none;fillColor=none;labelBackgroundColor=none;rounded=0;shadow=1;" parent="1" vertex="1">
          <mxGeometry x="150" y="113" width="80" height="30" as="geometry" />
        </mxCell>
        <mxCell id="0-FfSzVfnS306d9q8jJu-21" value="1" style="text;html=1;align=center;verticalAlign=middle;resizable=0;points=[];autosize=1;strokeColor=none;fillColor=none;labelBackgroundColor=none;rounded=0;shadow=1;" parent="1" vertex="1">
          <mxGeometry x="160" y="143" width="30" height="30" as="geometry" />
        </mxCell>
        <mxCell id="0-FfSzVfnS306d9q8jJu-22" value="&lt;b&gt;Utente&lt;/b&gt;" style="swimlane;fontStyle=0;childLayout=stackLayout;horizontal=1;startSize=26;fillColor=none;horizontalStack=0;resizeParent=1;resizeParentMax=0;resizeLast=0;collapsible=1;marginBottom=0;whiteSpace=wrap;html=1;labelBackgroundColor=none;rounded=0;shadow=1;" parent="1" vertex="1">
          <mxGeometry x="20" y="442" width="140" height="130" as="geometry" />
        </mxCell>
        <mxCell id="0-FfSzVfnS306d9q8jJu-23" value="+ nome: String" style="text;strokeColor=none;fillColor=none;align=left;verticalAlign=top;spacingLeft=4;spacingRight=4;overflow=hidden;rotatable=0;points=[[0,0.5],[1,0.5]];portConstraint=eastwest;whiteSpace=wrap;html=1;labelBackgroundColor=none;rounded=0;shadow=1;" parent="0-FfSzVfnS306d9q8jJu-22" vertex="1">
          <mxGeometry y="26" width="140" height="26" as="geometry" />
        </mxCell>
        <mxCell id="0-FfSzVfnS306d9q8jJu-24" value="+ cognome: String" style="text;strokeColor=none;fillColor=none;align=left;verticalAlign=top;spacingLeft=4;spacingRight=4;overflow=hidden;rotatable=0;points=[[0,0.5],[1,0.5]];portConstraint=eastwest;whiteSpace=wrap;html=1;labelBackgroundColor=none;rounded=0;shadow=1;" parent="0-FfSzVfnS306d9q8jJu-22" vertex="1">
          <mxGeometry y="52" width="140" height="26" as="geometry" />
        </mxCell>
        <mxCell id="0-FfSzVfnS306d9q8jJu-25" value="+ username: String" style="text;strokeColor=none;fillColor=none;align=left;verticalAlign=top;spacingLeft=4;spacingRight=4;overflow=hidden;rotatable=0;points=[[0,0.5],[1,0.5]];portConstraint=eastwest;whiteSpace=wrap;html=1;labelBackgroundColor=none;rounded=0;shadow=1;" parent="0-FfSzVfnS306d9q8jJu-22" vertex="1">
          <mxGeometry y="78" width="140" height="26" as="geometry" />
        </mxCell>
        <mxCell id="0-FfSzVfnS306d9q8jJu-31" value="+ password: String" style="text;strokeColor=none;fillColor=none;align=left;verticalAlign=top;spacingLeft=4;spacingRight=4;overflow=hidden;rotatable=0;points=[[0,0.5],[1,0.5]];portConstraint=eastwest;whiteSpace=wrap;html=1;labelBackgroundColor=none;rounded=0;shadow=1;" parent="0-FfSzVfnS306d9q8jJu-22" vertex="1">
          <mxGeometry y="104" width="140" height="26" as="geometry" />
        </mxCell>
        <mxCell id="0-FfSzVfnS306d9q8jJu-38" value="&amp;lt;&amp;lt;abstract&amp;gt;&amp;gt;&lt;div&gt;Sessione&lt;/div&gt;" style="swimlane;fontStyle=0;childLayout=stackLayout;horizontal=1;startSize=26;fillColor=none;horizontalStack=0;resizeParent=1;resizeParentMax=0;resizeLast=0;collapsible=1;marginBottom=0;whiteSpace=wrap;html=1;labelBackgroundColor=none;rounded=0;shadow=1;" parent="1" vertex="1">
          <mxGeometry x="312" y="440" width="172" height="78" as="geometry">
            <mxRectangle x="350" y="340" width="110" height="40" as="alternateBounds" />
          </mxGeometry>
        </mxCell>
        <mxCell id="0-FfSzVfnS306d9q8jJu-40" value="+ data: Date" style="text;strokeColor=none;fillColor=none;align=left;verticalAlign=top;spacingLeft=4;spacingRight=4;overflow=hidden;rotatable=0;points=[[0,0.5],[1,0.5]];portConstraint=eastwest;whiteSpace=wrap;html=1;labelBackgroundColor=none;rounded=0;shadow=1;" parent="0-FfSzVfnS306d9q8jJu-38" vertex="1">
          <mxGeometry y="26" width="172" height="26" as="geometry" />
        </mxCell>
        <mxCell id="oAdCWvft2QHYBM6_ep-j-1" value="+ numeroSessione: Integer" style="text;strokeColor=none;fillColor=none;align=left;verticalAlign=top;spacingLeft=4;spacingRight=4;overflow=hidden;rotatable=0;points=[[0,0.5],[1,0.5]];portConstraint=eastwest;whiteSpace=wrap;html=1;shadow=1;" parent="0-FfSzVfnS306d9q8jJu-38" vertex="1">
          <mxGeometry y="52" width="172" height="26" as="geometry" />
        </mxCell>
        <mxCell id="0-FfSzVfnS306d9q8jJu-42" value="&amp;lt;&amp;lt;enum&amp;gt;&amp;gt;&lt;div&gt;&lt;b&gt;Categoria&lt;/b&gt;&lt;/div&gt;" style="swimlane;fontStyle=0;childLayout=stackLayout;horizontal=1;startSize=26;fillColor=none;horizontalStack=0;resizeParent=1;resizeParentMax=0;resizeLast=0;collapsible=1;marginBottom=0;whiteSpace=wrap;html=1;labelBackgroundColor=none;rounded=0;shadow=1;" parent="1" vertex="1">
          <mxGeometry x="600" y="80" width="140" height="156" as="geometry" />
        </mxCell>
        <mxCell id="0-FfSzVfnS306d9q8jJu-43" value="+ Cucina Asiatica" style="text;strokeColor=none;fillColor=none;align=left;verticalAlign=top;spacingLeft=4;spacingRight=4;overflow=hidden;rotatable=0;points=[[0,0.5],[1,0.5]];portConstraint=eastwest;whiteSpace=wrap;html=1;labelBackgroundColor=none;rounded=0;shadow=1;" parent="0-FfSzVfnS306d9q8jJu-42" vertex="1">
          <mxGeometry y="26" width="140" height="26" as="geometry" />
        </mxCell>
        <mxCell id="0-FfSzVfnS306d9q8jJu-48" value="+ Cucina Italiana" style="text;strokeColor=none;fillColor=none;align=left;verticalAlign=top;spacingLeft=4;spacingRight=4;overflow=hidden;rotatable=0;points=[[0,0.5],[1,0.5]];portConstraint=eastwest;whiteSpace=wrap;html=1;labelBackgroundColor=none;rounded=0;shadow=1;" parent="0-FfSzVfnS306d9q8jJu-42" vertex="1">
          <mxGeometry y="52" width="140" height="26" as="geometry" />
        </mxCell>
        <mxCell id="0-FfSzVfnS306d9q8jJu-49" value="+ Cucina Vegana" style="text;strokeColor=none;fillColor=none;align=left;verticalAlign=top;spacingLeft=4;spacingRight=4;overflow=hidden;rotatable=0;points=[[0,0.5],[1,0.5]];portConstraint=eastwest;whiteSpace=wrap;html=1;labelBackgroundColor=none;rounded=0;shadow=1;" parent="0-FfSzVfnS306d9q8jJu-42" vertex="1">
          <mxGeometry y="78" width="140" height="26" as="geometry" />
        </mxCell>
        <mxCell id="0-FfSzVfnS306d9q8jJu-44" value="+ Pasticceria" style="text;strokeColor=none;fillColor=none;align=left;verticalAlign=top;spacingLeft=4;spacingRight=4;overflow=hidden;rotatable=0;points=[[0,0.5],[1,0.5]];portConstraint=eastwest;whiteSpace=wrap;html=1;labelBackgroundColor=none;rounded=0;shadow=1;" parent="0-FfSzVfnS306d9q8jJu-42" vertex="1">
          <mxGeometry y="104" width="140" height="26" as="geometry" />
        </mxCell>
        <mxCell id="0-FfSzVfnS306d9q8jJu-45" value="+ Panificazione" style="text;strokeColor=none;fillColor=none;align=left;verticalAlign=top;spacingLeft=4;spacingRight=4;overflow=hidden;rotatable=0;points=[[0,0.5],[1,0.5]];portConstraint=eastwest;whiteSpace=wrap;html=1;labelBackgroundColor=none;rounded=0;shadow=1;" parent="0-FfSzVfnS306d9q8jJu-42" vertex="1">
          <mxGeometry y="130" width="140" height="26" as="geometry" />
        </mxCell>
        <mxCell id="0-FfSzVfnS306d9q8jJu-51" value="&amp;lt;&amp;lt;enum&amp;gt;&amp;gt;&lt;br&gt;&lt;b&gt;FrequenzaSessioni&lt;/b&gt;" style="swimlane;fontStyle=0;childLayout=stackLayout;horizontal=1;startSize=26;fillColor=none;horizontalStack=0;resizeParent=1;resizeParentMax=0;resizeLast=0;collapsible=1;marginBottom=0;whiteSpace=wrap;html=1;labelBackgroundColor=none;rounded=0;shadow=1;" parent="1" vertex="1">
          <mxGeometry x="600" y="260" width="140" height="182" as="geometry" />
        </mxCell>
        <mxCell id="0-FfSzVfnS306d9q8jJu-53" value="+ Giornaliera" style="text;strokeColor=none;fillColor=none;align=left;verticalAlign=top;spacingLeft=4;spacingRight=4;overflow=hidden;rotatable=0;points=[[0,0.5],[1,0.5]];portConstraint=eastwest;whiteSpace=wrap;html=1;labelBackgroundColor=none;rounded=0;shadow=1;" parent="0-FfSzVfnS306d9q8jJu-51" vertex="1">
          <mxGeometry y="26" width="140" height="26" as="geometry" />
        </mxCell>
        <mxCell id="0-FfSzVfnS306d9q8jJu-54" value="+ Ogni 2 giorni" style="text;strokeColor=none;fillColor=none;align=left;verticalAlign=top;spacingLeft=4;spacingRight=4;overflow=hidden;rotatable=0;points=[[0,0.5],[1,0.5]];portConstraint=eastwest;whiteSpace=wrap;html=1;labelBackgroundColor=none;rounded=0;shadow=1;" parent="0-FfSzVfnS306d9q8jJu-51" vertex="1">
          <mxGeometry y="52" width="140" height="26" as="geometry" />
        </mxCell>
        <mxCell id="0-FfSzVfnS306d9q8jJu-52" value="+ Settimanale" style="text;strokeColor=none;fillColor=none;align=left;verticalAlign=top;spacingLeft=4;spacingRight=4;overflow=hidden;rotatable=0;points=[[0,0.5],[1,0.5]];portConstraint=eastwest;whiteSpace=wrap;html=1;labelBackgroundColor=none;rounded=0;shadow=1;" parent="0-FfSzVfnS306d9q8jJu-51" vertex="1">
          <mxGeometry y="78" width="140" height="26" as="geometry" />
        </mxCell>
        <mxCell id="0-FfSzVfnS306d9q8jJu-55" value="+ Bisettimanale" style="text;strokeColor=none;fillColor=none;align=left;verticalAlign=top;spacingLeft=4;spacingRight=4;overflow=hidden;rotatable=0;points=[[0,0.5],[1,0.5]];portConstraint=eastwest;whiteSpace=wrap;html=1;labelBackgroundColor=none;rounded=0;shadow=1;" parent="0-FfSzVfnS306d9q8jJu-51" vertex="1">
          <mxGeometry y="104" width="140" height="26" as="geometry" />
        </mxCell>
        <mxCell id="0-FfSzVfnS306d9q8jJu-56" value="+ Ogni 2 settimane" style="text;strokeColor=none;fillColor=none;align=left;verticalAlign=top;spacingLeft=4;spacingRight=4;overflow=hidden;rotatable=0;points=[[0,0.5],[1,0.5]];portConstraint=eastwest;whiteSpace=wrap;html=1;labelBackgroundColor=none;rounded=0;shadow=1;" parent="0-FfSzVfnS306d9q8jJu-51" vertex="1">
          <mxGeometry y="130" width="140" height="26" as="geometry" />
        </mxCell>
        <mxCell id="0-FfSzVfnS306d9q8jJu-57" value="+ Mensile" style="text;strokeColor=none;fillColor=none;align=left;verticalAlign=top;spacingLeft=4;spacingRight=4;overflow=hidden;rotatable=0;points=[[0,0.5],[1,0.5]];portConstraint=eastwest;whiteSpace=wrap;html=1;labelBackgroundColor=none;rounded=0;shadow=1;" parent="0-FfSzVfnS306d9q8jJu-51" vertex="1">
          <mxGeometry y="156" width="140" height="26" as="geometry" />
        </mxCell>
        <mxCell id="0-FfSzVfnS306d9q8jJu-61" value="1..*" style="text;html=1;align=center;verticalAlign=middle;resizable=0;points=[];autosize=1;strokeColor=none;fillColor=none;labelBackgroundColor=none;rounded=0;shadow=1;" parent="1" vertex="1">
          <mxGeometry x="363" y="410" width="40" height="30" as="geometry" />
        </mxCell>
        <mxCell id="0-FfSzVfnS306d9q8jJu-63" value="Suddiviso in" style="text;html=1;align=center;verticalAlign=middle;resizable=0;points=[];autosize=1;strokeColor=none;fillColor=none;labelBackgroundColor=none;rounded=0;shadow=1;" parent="1" vertex="1">
          <mxGeometry x="393" y="410" width="90" height="30" as="geometry" />
        </mxCell>
        <mxCell id="0-FfSzVfnS306d9q8jJu-64" value="1" style="text;html=1;align=center;verticalAlign=middle;resizable=0;points=[];autosize=1;strokeColor=none;fillColor=none;labelBackgroundColor=none;rounded=0;shadow=1;" parent="1" vertex="1">
          <mxGeometry x="373" y="210" width="30" height="30" as="geometry" />
        </mxCell>
        <mxCell id="0-FfSzVfnS306d9q8jJu-66" value="Parte di" style="text;html=1;align=center;verticalAlign=middle;resizable=0;points=[];autosize=1;strokeColor=none;fillColor=none;labelBackgroundColor=none;rounded=0;shadow=1;" parent="1" vertex="1">
          <mxGeometry x="398" y="210" width="60" height="30" as="geometry" />
        </mxCell>
        <mxCell id="lOlJs6AD22PqkmEsY_Mq-5" style="edgeStyle=orthogonalEdgeStyle;rounded=0;orthogonalLoop=1;jettySize=auto;html=1;entryX=1;entryY=0.5;entryDx=0;entryDy=0;endArrow=block;endSize=16;endFill=0" edge="1" parent="1" source="0-FfSzVfnS306d9q8jJu-67" target="oAdCWvft2QHYBM6_ep-j-1">
          <mxGeometry relative="1" as="geometry" />
        </mxCell>
        <mxCell id="0-FfSzVfnS306d9q8jJu-67" value="&lt;b&gt;SessioneOnline&lt;/b&gt;" style="swimlane;fontStyle=0;childLayout=stackLayout;horizontal=1;startSize=26;fillColor=none;horizontalStack=0;resizeParent=1;resizeParentMax=0;resizeLast=0;collapsible=1;marginBottom=0;whiteSpace=wrap;html=1;labelBackgroundColor=none;rounded=0;shadow=1;" parent="1" vertex="1">
          <mxGeometry x="600" y="630" width="140" height="52" as="geometry" />
        </mxCell>
        <mxCell id="lOlJs6AD22PqkmEsY_Mq-1" style="edgeStyle=orthogonalEdgeStyle;rounded=0;orthogonalLoop=1;jettySize=auto;html=1;endArrow=none" edge="1" parent="1" source="0-FfSzVfnS306d9q8jJu-72" target="0-FfSzVfnS306d9q8jJu-22">
          <mxGeometry relative="1" as="geometry" />
        </mxCell>
        <mxCell id="0-FfSzVfnS306d9q8jJu-72" value="&lt;b&gt;SessioneInPresenza&lt;/b&gt;" style="swimlane;fontStyle=0;childLayout=stackLayout;horizontal=1;startSize=26;horizontalStack=0;resizeParent=1;resizeParentMax=0;resizeLast=0;collapsible=1;marginBottom=0;whiteSpace=wrap;html=1;labelBackgroundColor=none;rounded=0;shadow=1;" parent="1" vertex="1">
          <mxGeometry x="307" y="630" width="182" height="52" as="geometry" />
        </mxCell>
        <mxCell id="0-FfSzVfnS306d9q8jJu-99" value="+ numeroPartecipanti: Integer" style="text;strokeColor=none;fillColor=none;align=left;verticalAlign=top;spacingLeft=4;spacingRight=4;overflow=hidden;rotatable=0;points=[[0,0.5],[1,0.5]];portConstraint=eastwest;whiteSpace=wrap;html=1;labelBackgroundColor=none;rounded=0;shadow=1;" parent="0-FfSzVfnS306d9q8jJu-72" vertex="1">
          <mxGeometry y="26" width="182" height="26" as="geometry" />
        </mxCell>
        <mxCell id="0-FfSzVfnS306d9q8jJu-76" value="" style="endArrow=block;endSize=16;endFill=0;html=1;rounded=0;labelBackgroundColor=none;fontColor=default;shadow=1;" parent="1" source="0-FfSzVfnS306d9q8jJu-72" target="0-FfSzVfnS306d9q8jJu-38" edge="1">
          <mxGeometry width="160" relative="1" as="geometry">
            <mxPoint x="315" y="586.5" as="sourcePoint" />
            <mxPoint x="475" y="586.5" as="targetPoint" />
          </mxGeometry>
        </mxCell>
        <mxCell id="0-FfSzVfnS306d9q8jJu-77" value="&lt;b&gt;Ricetta&lt;/b&gt;" style="swimlane;fontStyle=0;childLayout=stackLayout;horizontal=1;startSize=26;fillColor=none;horizontalStack=0;resizeParent=1;resizeParentMax=0;resizeLast=0;collapsible=1;marginBottom=0;whiteSpace=wrap;html=1;labelBackgroundColor=none;rounded=0;shadow=1;" parent="1" vertex="1">
          <mxGeometry x="308" y="820" width="180" height="52" as="geometry" />
        </mxCell>
        <mxCell id="0-FfSzVfnS306d9q8jJu-78" value="+ nome: String" style="text;strokeColor=none;fillColor=none;align=left;verticalAlign=top;spacingLeft=4;spacingRight=4;overflow=hidden;rotatable=0;points=[[0,0.5],[1,0.5]];portConstraint=eastwest;whiteSpace=wrap;html=1;labelBackgroundColor=none;rounded=0;shadow=1;" parent="0-FfSzVfnS306d9q8jJu-77" vertex="1">
          <mxGeometry y="26" width="180" height="26" as="geometry" />
        </mxCell>
        <mxCell id="0-FfSzVfnS306d9q8jJu-82" value="&lt;b&gt;Ingrediente&lt;/b&gt;" style="swimlane;fontStyle=0;childLayout=stackLayout;horizontal=1;startSize=26;fillColor=none;horizontalStack=0;resizeParent=1;resizeParentMax=0;resizeLast=0;collapsible=1;marginBottom=0;whiteSpace=wrap;html=1;labelBackgroundColor=none;rounded=0;shadow=1;" parent="1" vertex="1">
          <mxGeometry x="328" y="1010" width="140" height="78" as="geometry" />
        </mxCell>
        <mxCell id="0-FfSzVfnS306d9q8jJu-83" value="+ nome: String" style="text;strokeColor=none;fillColor=none;align=left;verticalAlign=top;spacingLeft=4;spacingRight=4;overflow=hidden;rotatable=0;points=[[0,0.5],[1,0.5]];portConstraint=eastwest;whiteSpace=wrap;html=1;labelBackgroundColor=none;rounded=0;shadow=1;" parent="0-FfSzVfnS306d9q8jJu-82" vertex="1">
          <mxGeometry y="26" width="140" height="26" as="geometry" />
        </mxCell>
        <mxCell id="0-FfSzVfnS306d9q8jJu-84" value="+ quantitá: Integer" style="text;strokeColor=none;fillColor=none;align=left;verticalAlign=top;spacingLeft=4;spacingRight=4;overflow=hidden;rotatable=0;points=[[0,0.5],[1,0.5]];portConstraint=eastwest;whiteSpace=wrap;html=1;labelBackgroundColor=none;rounded=0;shadow=1;" parent="0-FfSzVfnS306d9q8jJu-82" vertex="1">
          <mxGeometry y="52" width="140" height="26" as="geometry" />
        </mxCell>
        <mxCell id="0-FfSzVfnS306d9q8jJu-87" value="Realizza" style="text;html=1;align=center;verticalAlign=middle;resizable=0;points=[];autosize=1;strokeColor=none;fillColor=none;labelBackgroundColor=none;rounded=0;shadow=1;" parent="1" vertex="1">
          <mxGeometry x="398" y="790" width="70" height="30" as="geometry" />
        </mxCell>
        <mxCell id="0-FfSzVfnS306d9q8jJu-88" value="1..*" style="text;html=1;align=center;verticalAlign=middle;resizable=0;points=[];autosize=1;strokeColor=none;fillColor=none;labelBackgroundColor=none;rounded=0;shadow=1;" parent="1" vertex="1">
          <mxGeometry x="363" y="790" width="40" height="30" as="geometry" />
        </mxCell>
        <mxCell id="0-FfSzVfnS306d9q8jJu-91" value="Utilizza" style="text;html=1;align=center;verticalAlign=middle;resizable=0;points=[];autosize=1;strokeColor=none;fillColor=none;labelBackgroundColor=none;rounded=0;shadow=1;" parent="1" vertex="1">
          <mxGeometry x="398" y="980" width="60" height="30" as="geometry" />
        </mxCell>
        <mxCell id="0-FfSzVfnS306d9q8jJu-92" value="1..*" style="text;html=1;align=center;verticalAlign=middle;resizable=0;points=[];autosize=1;strokeColor=none;fillColor=none;labelBackgroundColor=none;rounded=0;shadow=1;" parent="1" vertex="1">
          <mxGeometry x="363" y="980" width="40" height="30" as="geometry" />
        </mxCell>
        <mxCell id="0-FfSzVfnS306d9q8jJu-94" value="Partecipa" style="text;html=1;align=center;verticalAlign=middle;resizable=0;points=[];autosize=1;strokeColor=none;fillColor=none;labelBackgroundColor=none;rounded=0;shadow=1;" parent="1" vertex="1">
          <mxGeometry x="237" y="630" width="70" height="30" as="geometry" />
        </mxCell>
        <mxCell id="0-FfSzVfnS306d9q8jJu-95" value="0..*" style="text;html=1;align=center;verticalAlign=middle;resizable=0;points=[];autosize=1;strokeColor=none;fillColor=none;labelBackgroundColor=none;rounded=0;shadow=1;" parent="1" vertex="1">
          <mxGeometry x="267" y="652" width="40" height="30" as="geometry" />
        </mxCell>
        <mxCell id="0-FfSzVfnS306d9q8jJu-98" value="0..*" style="text;html=1;align=center;verticalAlign=middle;resizable=0;points=[];autosize=1;strokeColor=none;fillColor=none;labelBackgroundColor=none;rounded=0;shadow=1;" parent="1" vertex="1">
          <mxGeometry x="50" y="570" width="40" height="30" as="geometry" />
        </mxCell>
        <mxCell id="0-FfSzVfnS306d9q8jJu-101" value="Ha partecipanti" style="text;html=1;align=center;verticalAlign=middle;resizable=0;points=[];autosize=1;strokeColor=none;fillColor=none;labelBackgroundColor=none;rounded=0;shadow=1;" parent="1" vertex="1">
          <mxGeometry x="90" y="570" width="100" height="30" as="geometry" />
        </mxCell>
        <mxCell id="PFvajb-UfRe7SNQV67iP-1" value="0..*" style="text;html=1;align=center;verticalAlign=middle;resizable=0;points=[];autosize=1;strokeColor=none;fillColor=none;" parent="1" vertex="1">
          <mxGeometry x="363" y="682" width="40" height="30" as="geometry" />
        </mxCell>
        <mxCell id="PFvajb-UfRe7SNQV67iP-2" value="0..*" style="text;html=1;align=center;verticalAlign=middle;resizable=0;points=[];autosize=1;strokeColor=none;fillColor=none;" parent="1" vertex="1">
          <mxGeometry x="363" y="872" width="40" height="30" as="geometry" />
        </mxCell>
        <mxCell id="PFvajb-UfRe7SNQV67iP-3" value="Utilizzato in" style="text;html=1;align=center;verticalAlign=middle;resizable=0;points=[];autosize=1;strokeColor=none;fillColor=none;" parent="1" vertex="1">
          <mxGeometry x="398" y="872" width="80" height="30" as="geometry" />
        </mxCell>
        <mxCell id="PFvajb-UfRe7SNQV67iP-4" value="Realizzata in" style="text;html=1;align=center;verticalAlign=middle;resizable=0;points=[];autosize=1;strokeColor=none;fillColor=none;" parent="1" vertex="1">
          <mxGeometry x="398" y="682" width="90" height="30" as="geometry" />
        </mxCell>
        <mxCell id="PFvajb-UfRe7SNQV67iP-12" value="" style="endArrow=none;html=1;rounded=0;" parent="1" source="0-FfSzVfnS306d9q8jJu-82" target="0-FfSzVfnS306d9q8jJu-77" edge="1">
          <mxGeometry width="50" height="50" relative="1" as="geometry">
            <mxPoint x="390" y="670" as="sourcePoint" />
            <mxPoint x="440" y="620" as="targetPoint" />
          </mxGeometry>
        </mxCell>
        <mxCell id="PFvajb-UfRe7SNQV67iP-13" value="" style="endArrow=none;html=1;rounded=0;" parent="1" source="0-FfSzVfnS306d9q8jJu-72" target="0-FfSzVfnS306d9q8jJu-77" edge="1">
          <mxGeometry width="50" height="50" relative="1" as="geometry">
            <mxPoint x="390" y="670" as="sourcePoint" />
            <mxPoint x="440" y="620" as="targetPoint" />
          </mxGeometry>
        </mxCell>
        <mxCell id="PFvajb-UfRe7SNQV67iP-14" value="" style="endArrow=none;html=1;rounded=0;" parent="1" source="0-FfSzVfnS306d9q8jJu-9" target="0-FfSzVfnS306d9q8jJu-1" edge="1">
          <mxGeometry width="50" height="50" relative="1" as="geometry">
            <mxPoint x="390" y="630" as="sourcePoint" />
            <mxPoint x="440" y="580" as="targetPoint" />
          </mxGeometry>
        </mxCell>
        <mxCell id="PFvajb-UfRe7SNQV67iP-15" value="" style="endArrow=none;html=1;rounded=0;" parent="1" source="0-FfSzVfnS306d9q8jJu-38" target="0-FfSzVfnS306d9q8jJu-1" edge="1">
          <mxGeometry width="50" height="50" relative="1" as="geometry">
            <mxPoint x="390" y="670" as="sourcePoint" />
            <mxPoint x="440" y="620" as="targetPoint" />
          </mxGeometry>
        </mxCell>
        <mxCell id="lOlJs6AD22PqkmEsY_Mq-15" style="edgeStyle=orthogonalEdgeStyle;rounded=0;orthogonalLoop=1;jettySize=auto;html=1;entryX=0.001;entryY=0.985;entryDx=0;entryDy=0;entryPerimeter=0;endArrow=none" edge="1" parent="1" source="0-FfSzVfnS306d9q8jJu-22" target="0-FfSzVfnS306d9q8jJu-8">
          <mxGeometry relative="1" as="geometry" />
        </mxCell>
        <mxCell id="lOlJs6AD22PqkmEsY_Mq-16" value="Ha iscritti" style="text;html=1;align=center;verticalAlign=middle;resizable=0;points=[];autosize=1;strokeColor=none;fillColor=none;" vertex="1" parent="1">
          <mxGeometry x="90" y="410" width="70" height="30" as="geometry" />
        </mxCell>
        <mxCell id="lOlJs6AD22PqkmEsY_Mq-17" value="Iscritto a" style="text;html=1;align=center;verticalAlign=middle;resizable=0;points=[];autosize=1;strokeColor=none;fillColor=none;" vertex="1" parent="1">
          <mxGeometry x="240" y="210" width="70" height="30" as="geometry" />
        </mxCell>
        <mxCell id="lOlJs6AD22PqkmEsY_Mq-18" value="0..*" style="text;html=1;align=center;verticalAlign=middle;resizable=0;points=[];autosize=1;strokeColor=none;fillColor=none;" vertex="1" parent="1">
          <mxGeometry x="50" y="410" width="40" height="30" as="geometry" />
        </mxCell>
        <mxCell id="lOlJs6AD22PqkmEsY_Mq-19" value="0..*" style="text;html=1;align=center;verticalAlign=middle;resizable=0;points=[];autosize=1;strokeColor=none;fillColor=none;" vertex="1" parent="1">
          <mxGeometry x="303" y="209" width="40" height="30" as="geometry" />
        </mxCell>
      </root>
    </mxGraphModel>
  </diagram>
</mxfile>
